<svg width="512" height="512" viewBox="0 0 512 512" fill="none" xmlns="http://www.w3.org/2000/svg">
<g clip-path="url(#clip0_322_17)">
<rect width="512" height="512" fill="#FFCC00"/>
<ellipse cx="256" cy="481.5" rx="132" ry="182.5" fill="black"/>
<ellipse cx="256" cy="256" rx="151" ry="117" fill="black"/>
<path d="M384.09 73.2939C388.199 70.0006 394.254 73.2202 393.822 78.4685L384.383 193.02C384.029 197.317 379.393 199.849 375.586 197.825L295.336 155.155C291.529 153.131 291.036 147.872 294.4 145.176L384.09 73.2939Z" fill="black"/>
<path d="M131.503 73.2939C127.393 70.0006 121.338 73.2202 121.77 78.4685L131.209 193.02C131.564 197.317 136.199 199.849 140.006 197.825L220.257 155.155C224.063 153.131 224.556 147.872 221.192 145.176L131.503 73.2939Z" fill="black"/>
<g filter="url(#filter0_d_322_17)">
<circle cx="229" cy="235" r="14" fill="#FFCC00"/>
</g>
<circle cx="341" cy="235" r="14" fill="#FFCC00"/>
<path d="M434.243 298.34C439.656 290.984 449.538 288.521 457.771 292.474L763.457 439.269C779.5 446.972 777.097 470.527 759.829 474.832L253.153 601.16C235.885 605.466 222.706 585.797 233.253 571.463L434.243 298.34Z" fill="black"/>
<path d="M82.7957 298.34C77.3824 290.984 67.501 288.521 59.2678 292.474L-246.419 439.269C-262.461 446.972 -260.058 470.527 -242.791 474.832L263.886 601.16C281.153 605.466 294.333 585.797 283.785 571.463L82.7957 298.34Z" fill="black"/>
</g>
<defs>
<filter id="filter0_d_322_17" x="211" y="221" width="36" height="36" filterUnits="userSpaceOnUse" color-interpolation-filters="sRGB">
<feFlood flood-opacity="0" result="BackgroundImageFix"/>
<feColorMatrix in="SourceAlpha" type="matrix" values="0 0 0 0 0 0 0 0 0 0 0 0 0 0 0 0 0 0 127 0" result="hardAlpha"/>
<feOffset dy="4"/>
<feGaussianBlur stdDeviation="2"/>
<feComposite in2="hardAlpha" operator="out"/>
<feColorMatrix type="matrix" values="0 0 0 0 0 0 0 0 0 0 0 0 0 0 0 0 0 0 0.25 0"/>
<feBlend mode="normal" in2="BackgroundImageFix" result="effect1_dropShadow_322_17"/>
<feBlend mode="normal" in="SourceGraphic" in2="effect1_dropShadow_322_17" result="shape"/>
</filter>
<clipPath id="clip0_322_17">
<rect width="512" height="512" rx="76" fill="white"/>
</clipPath>
</defs>
</svg>
